<svg xmlns="http://www.w3.org/2000/svg" viewBox="0 0 1200 660" role="img" aria-labelledby="title desc">
  <title id="title">Modern tropical house illustration</title>
  <desc id="desc">A modern two-storey tropical home with carport, wide glass facade, and trees.</desc>
  <defs>
    <linearGradient id="glass" x1="0" x2="1" y1="0" y2="1">
      <stop offset="0%" stop-color="#d9eef5" stop-opacity="0.92"/>
      <stop offset="50%" stop-color="#8ea9b7" stop-opacity="0.88"/>
      <stop offset="100%" stop-color="#2d3a42" stop-opacity="0.92"/>
    </linearGradient>
    <linearGradient id="wood" x1="0" x2="1">
      <stop offset="0" stop-color="#8a6a4c"/>
      <stop offset="1" stop-color="#4d3427"/>
    </linearGradient>
    <filter id="shadow" x="-20%" y="-20%" width="140%" height="140%">
      <feDropShadow dx="0" dy="26" stdDeviation="28" flood-color="#24333c" flood-opacity="0.28"/>
    </filter>
    <radialGradient id="tree" cx="50%" cy="50%" r="60%">
      <stop offset="0" stop-color="#81a96e"/>
      <stop offset="1" stop-color="#2d6745"/>
    </radialGradient>
  </defs>

  <g opacity="0.95">
    <ellipse cx="150" cy="470" rx="105" ry="135" fill="url(#tree)" opacity=".76"/>
    <rect x="146" y="470" width="14" height="102" rx="6" fill="#7b5b3a"/>
    <ellipse cx="1050" cy="455" rx="112" ry="150" fill="url(#tree)" opacity=".78"/>
    <rect x="1044" y="454" width="14" height="115" rx="6" fill="#7b5b3a"/>
  </g>

  <g filter="url(#shadow)">
    <path d="M353 338 L586 108 L820 338 Z" fill="#d8d1c5"/>
    <path d="M378 337 L586 135 L794 337 Z" fill="#2e2a26" opacity=".9"/>
    <path d="M412 337 L586 168 L760 337 Z" fill="#e9e0d3"/>

    <rect x="320" y="334" width="533" height="246" rx="2" fill="#d9d2c8"/>
    <rect x="370" y="349" width="416" height="205" fill="#ccbda9"/>
    <rect x="414" y="356" width="342" height="187" fill="#e9ded1"/>

    <rect x="452" y="210" width="92" height="186" fill="url(#glass)"/>
    <rect x="548" y="210" width="83" height="186" fill="url(#glass)"/>
    <rect x="635" y="210" width="94" height="186" fill="url(#glass)"/>
    <path d="M448 306 H733" stroke="#d7d1c7" stroke-width="5" opacity=".65"/>
    <path d="M546 211 V397M633 211V397" stroke="#d7d1c7" stroke-width="5" opacity=".65"/>

    <rect x="545" y="382" width="107" height="198" fill="url(#wood)"/>
    <g opacity=".36" stroke="#c9a879" stroke-width="2">
      <path d="M558 382V580M576 382V580M594 382V580M612 382V580M630 382V580"/>
    </g>

    <rect x="400" y="425" width="116" height="155" fill="url(#glass)"/>
    <rect x="672" y="424" width="126" height="156" fill="url(#glass)"/>
    <rect x="829" y="305" width="168" height="275" fill="#d8d2c8"/>
    <rect x="850" y="330" width="116" height="165" fill="url(#glass)"/>
    <path d="M835 304h164v-24H835z" fill="#9a8c7c"/>

    <rect x="150" y="430" width="250" height="150" fill="#d4c9bb"/>
    <rect x="127" y="412" width="292" height="34" rx="4" fill="#9c8d7b"/>
    <rect x="178" y="447" width="188" height="92" fill="#efe9e1" opacity=".45"/>
    <path d="M169 580 H1016" stroke="#b6aa9c" stroke-width="20" stroke-linecap="round" opacity=".75"/>
  </g>

  <g transform="translate(196 515)" opacity=".78">
    <path d="M19 40 C22 18 41 6 77 6 h88 c37 0 57 13 62 35 l9 43 H9z" fill="#cfd6da"/>
    <circle cx="56" cy="84" r="20" fill="#384149"/>
    <circle cx="188" cy="84" r="20" fill="#384149"/>
    <rect x="67" y="24" width="95" height="30" rx="5" fill="#7f96a3"/>
  </g>
</svg>
