<svg xmlns="http://www.w3.org/2000/svg" viewBox="0 0 1320 760" role="img" aria-labelledby="title desc">
  <title id="title">Perumahan Jambe modern residential illustration</title>
  <desc id="desc">Modern tropical residential housing with green landscape and warm evening light.</desc>
  <defs>
    <linearGradient id="sky" x1="0" x2="1" y1="0" y2="1"><stop stop-color="#e8e4d7"/><stop offset="1" stop-color="#9cae99"/></linearGradient>
    <linearGradient id="glass" x1="0" x2="1"><stop stop-color="#cde1e7"/><stop offset="1" stop-color="#516772"/></linearGradient>
    <linearGradient id="wall" x1="0" x2="1"><stop stop-color="#f3eee5"/><stop offset="1" stop-color="#cfc1ad"/></linearGradient>
    <linearGradient id="roof" x1="0" x2="1"><stop stop-color="#3c4043"/><stop offset="1" stop-color="#161b20"/></linearGradient>
    <filter id="shadow" x="-20%" y="-20%" width="140%" height="150%"><feDropShadow dx="0" dy="36" stdDeviation="34" flood-color="#111820" flood-opacity=".32"/></filter>
  </defs>
  <rect width="1320" height="760" fill="url(#sky)" opacity=".18"/>
  <ellipse cx="230" cy="528" rx="160" ry="184" fill="#5f805b" opacity=".52"/>
  <ellipse cx="1115" cy="500" rx="172" ry="210" fill="#4e7350" opacity=".5"/>
  <rect x="222" y="510" width="17" height="134" rx="8" fill="#785a3a" opacity=".75"/>
  <rect x="1107" y="492" width="18" height="154" rx="8" fill="#785a3a" opacity=".75"/>
  <g filter="url(#shadow)">
    <path d="M258 380 L476 190 L704 380 Z" fill="url(#roof)"/>
    <path d="M618 374 L815 205 L1023 374 Z" fill="url(#roof)"/>
    <rect x="284" y="376" width="430" height="238" rx="2" fill="url(#wall)"/>
    <rect x="648" y="372" width="354" height="242" rx="2" fill="#e5dbcb"/>
    <rect x="380" y="402" width="112" height="174" fill="url(#glass)" opacity=".92"/>
    <rect x="518" y="402" width="120" height="174" fill="url(#glass)" opacity=".88"/>
    <rect x="731" y="397" width="132" height="178" fill="url(#glass)" opacity=".86"/>
    <rect x="890" y="398" width="70" height="216" fill="#7a5639"/>
    <rect x="308" y="586" width="718" height="44" rx="3" fill="#c6b6a2"/>
    <rect x="110" y="492" width="236" height="138" rx="2" fill="#d7ccbe"/>
    <rect x="92" y="470" width="286" height="38" rx="6" fill="#2e3339"/>
    <rect x="143" y="514" width="157" height="80" rx="5" fill="#eef1ef" opacity=".55"/>
    <rect x="1018" y="485" width="172" height="145" rx="2" fill="#d8cebf"/>
    <rect x="1000" y="464" width="212" height="35" rx="5" fill="#2f353a"/>
    <rect x="1047" y="514" width="96" height="78" rx="5" fill="#edf2f0" opacity=".55"/>
  </g>
  <path d="M84 644 C260 600 418 602 596 634 C746 660 913 674 1228 612" fill="none" stroke="#d4c5af" stroke-width="32" stroke-linecap="round" opacity=".85"/>
  <path d="M81 690 C276 644 478 670 627 692 C834 724 1025 713 1234 658" fill="none" stroke="#7c9878" stroke-width="36" stroke-linecap="round" opacity=".65"/>
  <g transform="translate(562 610)" opacity=".88">
    <path d="M30 36c10-23 28-34 60-34h86c36 0 58 14 70 40l16 38H14z" fill="#e3e6e7"/>
    <rect x="72" y="15" width="98" height="34" rx="5" fill="#6a7f88"/>
    <circle cx="68" cy="80" r="20" fill="#1c242b"/>
    <circle cx="204" cy="80" r="20" fill="#1c242b"/>
  </g>
</svg>
