<svg xmlns="http://www.w3.org/2000/svg" viewBox="0 0 820 520">
  <defs><linearGradient id="bg" x1="0" y1="0" x2="1" y2="1"><stop stop-color="#eee5d8"/><stop offset="1" stop-color="#6b8068"/></linearGradient><linearGradient id="g" x1="0" x2="1"><stop stop-color="#edf3f1"/><stop offset="1" stop-color="#5f7278"/></linearGradient></defs>
  <rect width="820" height="520" fill="url(#bg)"/>
  <circle cx="120" cy="340" r="125" fill="#4e7552" opacity=".48"/>
  <circle cx="710" cy="310" r="130" fill="#324b39" opacity=".4"/>
  <path d="M150 305 L330 135 L510 305 Z" fill="#22282e"/>
  <path d="M455 305 L605 170 L745 305 Z" fill="#252b31"/>
  <rect x="180" y="305" width="360" height="150" fill="#efe5d7"/>
  <rect x="530" y="305" width="190" height="150" fill="#d9cabb"/>
  <rect x="255" y="330" width="95" height="105" fill="url(#g)"/>
  <rect x="382" y="330" width="105" height="105" fill="url(#g)"/>
  <rect x="586" y="330" width="76" height="125" fill="#6c4a32"/>
  <path d="M95 462 C260 420 390 440 522 460 C625 478 712 463 790 432" stroke="#d9ccb9" stroke-width="28" fill="none" stroke-linecap="round"/>
</svg>
